<?xml version="1.0" encoding="UTF-8"?>
<svg xmlns="http://www.w3.org/2000/svg" xmlns:xlink="http://www.w3.org/1999/xlink" xmlns:svgjs="http://svgjs.com/svgjs" version="1.1" width="512" height="512" x="0" y="0" viewBox="0 0 511 511.9995" style="enable-background:new 0 0 512 512" xml:space="preserve">
  <g transform="matrix(1,0,0,1,95,0)">
    <path xmlns="http://www.w3.org/2000/svg" d="m240.5 346c5.519531 0 10-4.480469 10-10s-4.480469-10-10-10-10 4.480469-10 10 4.480469 10 10 10zm0 0" fill="#000000" data-original="#000000" style=""/>
    <path xmlns="http://www.w3.org/2000/svg" d="m71.3125 182.585938c-6.765625 47.277343-22.980469 75.765624-38.664062 103.316406-16.53125 29.042968-32.148438 56.476562-32.148438 100.097656 0 78.75 68.671875 126 150 126 81.695312 0 150-47.546875 150-126 0-43.523438-15.695312-71.238281-32.308594-100.578125-15.648437-27.640625-31.832031-56.222656-38.503906-102.835937-3.453125-24.152344-18.003906-46.109376-40.382812-58.527344 15.023437-5.753906 32.136718-14.867188 46.472656-29.207032 33.4375-33.425781 38.070312-81.921874 38.253906-83.972656.257812-2.945312-.800781-5.855468-2.890625-7.949218-2.09375-2.09375-5.003906-3.152344-7.953125-2.8906255-2.046875.1796875-50.546875 4.8124995-83.96875 38.2499995-14.851562 14.847657-24.019531 32.746094-29.640625 48.242188-12.429687-19.535156-34.257813-32.53125-59.082031-32.53125-5.523438 0-10 4.476562-10 10s4.476562 10 10 10c24.410156 0 44.773437 17.582031 49.128906 40.742188-35.671875 4.890624-63.324219 32.929687-68.3125 67.84375zm122.050781-130.15625c18.503907-18.507813 43.390625-26.691407 58.417969-30.144532-3.449219 15.035156-11.632812 39.921875-30.140625 58.421875-18.5 18.5-43.367187 26.867188-58.421875 30.453125 3.449219-15.160156 11.632812-40.226562 30.144531-58.730468zm-42.863281 81.570312c29.667969 0 55.199219 22.105469 59.390625 51.417969 7.203125 50.351562 25.105469 81.964843 40.898437 109.855469 15.941407 28.15625 29.710938 52.472656 29.710938 90.726562 0 62.410156-53.457031 106-130 106s-130-43.589844-130-106c0-38.328125 13.683594-62.367188 29.527344-90.203125 15.835937-27.8125 33.78125-59.339844 41.082031-110.382813 4.191406-29.3125 29.722656-51.414062 59.390625-51.414062zm0 0" fill="#000000" data-original="#000000" style=""/>
    <path xmlns="http://www.w3.org/2000/svg" d="m182.136719 469.535156c53.339843-8.847656 84.332031-47.425781 77.113281-95.996094-.8125-5.460937-5.898438-9.242187-11.359375-8.421874-5.464844.8125-9.234375 5.898437-8.421875 11.363281 5.574219 37.511719-18.214844 66.292969-60.605469 73.324219-5.449219.902343-9.132812 6.054687-8.230469 11.5.902344 5.4375 6.042969 9.132812 11.503907 8.230468zm0 0" fill="#000000" data-original="#000000" style=""/>
  </g>
</svg>
