<?xml version="1.0" standalone="no"?>
<!DOCTYPE svg PUBLIC "-//W3C//DTD SVG 20010904//EN"
 "http://www.w3.org/TR/2001/REC-SVG-20010904/DTD/svg10.dtd">
<svg version="1.0" xmlns="http://www.w3.org/2000/svg"
 width="700.000000pt" height="700.000000pt" viewBox="0 0 700.000000 700.000000"
 preserveAspectRatio="xMidYMid meet">
<metadata>
Created by potrace 1.14, written by Peter Selinger 2001-2017
</metadata>
<g transform="translate(0.000000,700.000000) scale(0.100000,-0.100000)"
fill="#000000" stroke="none">
<path d="M4860 6997 c-3 -3 -23 -7 -45 -11 -194 -27 -433 -105 -629 -203 -385
-193 -663 -509 -825 -936 l-11 -28 -51 68 c-164 218 -423 355 -694 370 -94 5
-102 4 -135 -19 -44 -30 -60 -61 -60 -116 0 -50 26 -95 68 -116 15 -7 61 -16
103 -20 182 -15 322 -79 445 -201 87 -86 160 -216 179 -316 l7 -36 -74 -17
c-40 -9 -77 -18 -83 -20 -5 -1 -23 -7 -40 -11 -121 -33 -306 -149 -423 -264
-175 -174 -275 -378 -317 -651 -44 -283 -123 -561 -228 -805 -65 -153 -139
-296 -288 -562 -152 -270 -175 -313 -220 -409 -152 -322 -218 -591 -223 -919
-4 -201 7 -307 49 -471 28 -110 83 -253 133 -344 34 -62 129 -209 141 -220 4
-3 19 -21 35 -40 110 -136 295 -293 448 -381 178 -102 361 -178 563 -232 78
-22 112 -29 185 -43 195 -36 563 -53 740 -33 41 5 95 11 120 13 25 3 56 8 70
11 14 3 45 8 70 11 25 3 48 8 51 10 3 2 19 6 36 8 123 22 367 110 521 188 484
245 799 638 897 1117 31 147 37 215 37 371 -1 183 -11 280 -49 450 -60 274
-151 483 -408 940 -248 439 -363 708 -445 1041 -26 107 -25 102 -56 284 -40
239 -101 392 -215 546 -63 85 -180 196 -269 255 -39 26 -69 48 -68 49 2 1 46
21 99 44 307 134 560 345 738 616 150 228 289 616 308 862 5 61 3 76 -15 105
-11 18 -33 40 -49 49 -26 15 -113 26 -123 16z m-137 -389 c-13 -46 -25 -90
-28 -98 -37 -134 -140 -339 -234 -464 -198 -264 -477 -443 -849 -545 l-73 -20
6 32 c29 140 144 417 228 548 185 288 470 489 857 603 127 37 122 40 93 -56z
m-1223 -1452 c14 -3 48 -11 75 -17 118 -26 287 -128 386 -232 57 -60 124 -163
158 -244 26 -61 63 -213 75 -313 24 -189 124 -530 228 -775 75 -175 135 -294
311 -610 158 -283 217 -401 269 -530 96 -241 137 -453 135 -712 -2 -386 -125
-683 -397 -953 -230 -230 -562 -393 -935 -459 -222 -40 -597 -48 -775 -16 -14
2 -56 9 -95 15 -377 59 -746 242 -979 487 -179 189 -310 442 -346 669 -6 38
-13 80 -16 94 -5 28 -5 306 0 360 4 34 13 97 21 150 11 67 57 225 90 315 62
166 127 293 335 660 275 484 413 854 495 1320 3 17 10 59 16 95 39 231 149
415 329 548 92 68 236 131 334 146 22 4 41 8 43 10 5 5 216 -1 243 -8z"/>
<path d="M4523 2520 c-89 -54 -82 -190 12 -234 122 -58 244 77 174 191 -39 62
-123 82 -186 43z"/>
<path d="M4655 1995 c-64 -34 -70 -54 -67 -216 2 -114 -1 -167 -16 -240 -71
-347 -341 -586 -765 -678 -99 -22 -130 -38 -152 -81 -33 -65 -13 -143 48 -181
32 -20 96 -22 166 -5 173 41 281 80 397 142 425 228 639 628 590 1104 -8 80
-23 114 -63 144 -34 25 -100 31 -138 11z"/>
</g>
</svg>
